<?xml version="1.0" standalone="no"?>
<!DOCTYPE svg PUBLIC "-//W3C//DTD SVG 20010904//EN"
 "http://www.w3.org/TR/2001/REC-SVG-20010904/DTD/svg10.dtd">
<svg version="1.0" xmlns="http://www.w3.org/2000/svg"
 width="613.000000pt" height="613.000000pt" viewBox="0 0 613.000000 613.000000"
 preserveAspectRatio="xMidYMid meet">
<metadata>
Created by potrace 1.14, written by Peter Selinger 2001-2017
</metadata>
<g transform="translate(0.000000,613.000000) scale(0.100000,-0.100000)"
fill="#000000" stroke="none">
<path d="M3028 5095 c-3 -3 -75 -8 -159 -11 -85 -3 -170 -7 -189 -9 -19 -3
-64 -7 -100 -10 -36 -3 -74 -7 -86 -9 -12 -2 -45 -7 -75 -11 -30 -3 -61 -8
-69 -10 -26 -7 -84 -17 -115 -20 -16 -2 -37 -5 -45 -8 -17 -6 -142 -35 -180
-42 -14 -2 -47 -11 -75 -19 -27 -8 -84 -24 -125 -36 -116 -33 -264 -85 -345
-120 -11 -5 -42 -19 -70 -31 -27 -12 -50 -21 -50 -19 0 1 -26 -12 -57 -29 -32
-17 -58 -27 -58 -23 0 4 -4 2 -8 -3 -4 -6 -25 -19 -47 -30 -22 -11 -48 -26
-57 -34 -10 -8 -18 -11 -18 -6 0 4 -15 -4 -34 -19 -19 -14 -38 -26 -41 -26
-19 0 -271 -176 -370 -260 -71 -59 -277 -272 -315 -326 -268 -375 -364 -689
-327 -1064 37 -373 271 -788 603 -1067 28 -24 62 -53 76 -65 14 -13 38 -32 53
-43 16 -11 33 -25 39 -30 21 -20 165 -115 175 -115 5 0 11 -4 13 -9 12 -33
451 -243 648 -310 36 -12 72 -25 80 -28 44 -17 230 -70 274 -78 16 -3 37 -10
46 -15 10 -5 20 -7 23 -4 3 3 12 2 19 -2 7 -5 22 -10 33 -11 16 -3 110 -22
135 -28 3 -1 30 -5 60 -9 30 -5 65 -12 78 -17 17 -6 21 -6 16 3 -5 7 -3 8 6 3
7 -4 25 -9 39 -11 14 -2 44 -5 66 -8 22 -3 72 -8 110 -11 110 -9 144 -13 154
-20 5 -3 12 -1 16 4 3 7 15 7 30 1 24 -9 575 -9 575 0 0 3 28 7 63 8 34 2 76
5 92 7 17 2 55 6 85 9 103 12 218 29 280 43 8 1 25 4 38 5 12 1 22 5 22 8 0 3
10 6 23 7 21 1 43 5 97 17 14 3 34 8 46 10 12 2 54 14 95 26 41 12 79 23 84
24 26 5 161 49 170 56 6 4 26 11 45 15 19 4 41 11 50 16 8 5 53 24 100 43 111
45 185 80 205 96 8 7 15 10 15 6 0 -7 64 27 200 106 114 66 121 70 144 91 11
9 26 17 33 17 7 0 13 4 13 8 0 5 15 17 34 27 19 11 33 23 30 27 -3 4 1 8 8 8
7 0 27 13 45 28 18 15 53 45 80 67 59 50 230 221 263 264 14 18 37 47 52 64
15 18 28 38 28 45 0 6 4 12 9 12 8 0 52 68 100 152 12 21 30 54 41 73 11 19
20 38 21 43 1 4 6 18 12 32 6 14 11 27 12 30 1 3 7 19 14 35 7 17 14 37 16 45
2 8 8 27 14 43 6 15 8 27 5 27 -4 0 -1 7 6 15 7 8 10 22 6 30 -3 8 -2 15 3 15
4 0 8 6 8 13 0 6 3 26 7 42 20 97 27 288 14 420 -7 76 -54 274 -69 290 -5 5
-9 16 -9 24 0 14 -29 81 -81 185 -30 59 -130 219 -152 241 -7 6 -23 27 -37 45
-46 62 -149 170 -265 278 -52 49 -212 172 -223 172 -6 0 -12 4 -14 8 -3 9 -96
72 -104 72 -3 0 -20 10 -37 23 -70 49 -328 178 -497 247 -59 24 -332 116 -371
124 -13 3 -69 17 -124 31 -96 25 -229 53 -284 60 -14 2 -37 6 -51 9 -14 3 -47
8 -75 12 -27 3 -61 8 -75 10 -14 2 -54 6 -90 9 -36 4 -78 9 -95 11 -16 3 -111
7 -210 9 -99 2 -187 6 -196 10 -8 3 -18 3 -21 0z"/>
</g>
</svg>
